<?xml version="1.0" standalone="no"?>
<!DOCTYPE svg PUBLIC "-//W3C//DTD SVG 20010904//EN"
 "http://www.w3.org/TR/2001/REC-SVG-20010904/DTD/svg10.dtd">
<svg version="1.0" xmlns="http://www.w3.org/2000/svg"
 width="1500.000000pt" height="1500.000000pt" viewBox="0 0 1500.000000 1500.000000"
 preserveAspectRatio="xMidYMid meet">
<metadata>
Created by potrace 1.14, written by Peter Selinger 2001-2017
</metadata>
<g transform="translate(0.000000,1500.000000) scale(0.100000,-0.100000)"
fill="#000000" stroke="none">
<path d="M0 7500 l0 -7500 7500 0 7500 0 0 7500 0 7500 -7500 0 -7500 0 0
-7500z m14520 0 l0 -7020 -7020 0 -7020 0 0 7020 0 7020 7020 0 7020 0 0
-7020z"/>
<path d="M1580 9245 l0 -375 440 0 440 0 0 -1910 0 -1910 425 0 425 0 0 1910
0 1910 438 2 437 3 3 373 2 372 -1305 0 -1305 0 0 -375z"/>
<path d="M7514 9563 c4 -32 31 -380 61 -773 30 -393 57 -739 61 -767 l5 -53
285 0 c163 0 284 4 284 9 0 21 120 1560 125 1599 l5 42 -416 0 -416 0 6 -57z"/>
<path d="M9260 7335 l0 -2285 405 0 405 0 0 2285 0 2285 -405 0 -405 0 0
-2285z"/>
<path d="M5750 8269 c-569 -351 -1063 -657 -1098 -679 l-62 -39 2 -243 3 -242
455 -281 c250 -154 744 -459 1097 -678 353 -218 644 -397 647 -397 4 0 5 158
4 352 l-3 352 -752 446 c-414 245 -753 447 -753 450 0 3 340 205 755 449 l755
445 0 353 c0 194 -3 353 -7 352 -5 0 -474 -288 -1043 -640z"/>
<path d="M10960 8558 l0 -353 760 -445 c418 -244 760 -447 760 -450 0 -3 -335
-203 -745 -444 -410 -242 -752 -444 -760 -450 -13 -9 -15 -61 -13 -362 l3
-350 845 523 c465 287 961 594 1102 680 l257 158 1 245 0 246 -1100 677 c-604
372 -1102 677 -1105 677 -3 0 -5 -159 -5 -352z"/>
</g>
</svg>
